<?xml version="1.0" encoding="UTF-8"?>
<!DOCTYPE svg PUBLIC "-//W3C//DTD SVG 1.1//EN" "http://www.w3.org/Graphics/SVG/1.1/DTD/svg11.dtd">
<!-- Creator: CorelDRAW -->
<svg xmlns="http://www.w3.org/2000/svg" xml:space="preserve" width="200px" height="100px" version="1.1" shape-rendering="geometricPrecision" text-rendering="geometricPrecision" image-rendering="optimizeQuality" fill-rule="evenodd" clip-rule="evenodd"
viewBox="0 0 200 100"
 xmlns:xlink="http://www.w3.org/1999/xlink"
 xmlns:xodm="http://www.corel.com/coreldraw/odm/2003">
 <g id="Layer_x0020_1">
  <metadata id="CorelCorpID_0Corel-Layer"/>
  <g id="_2279720944576">
   <path fill="#324B8D" d="M125.05 68.36l0 -33.94 0.64 -1 0 -15.05c0.39,-5.05 3.07,-9.27 7.47,-12.16 4.4,2.89 7.09,7.11 7.47,12.16l0 15.05 0.64 1 0 33.94 0.77 0 0 -49.99c-0.07,-7.55 -4.08,-11.19 -8.88,-14.18 -4.8,2.99 -8.81,6.63 -8.88,14.18l0 49.99 0.77 0zm22.99 -34.67l-0.85 0 0 6.49 0 0.1 -0.05 0.1 -2.6 4.92 0 22.45 3.5 0 0 -34.06zm-1.29 -0.9l1.74 0 0.04 0 0.41 0 0.04 0 1.75 0 0.45 0 0 0.45 0 6.83 2.6 4.92 0.05 0.1 0 0.11 0 23 0 0.44 -0.45 0 -4.4 0 -0.04 0 -0.41 0 -0.04 0 -4.4 0 -0.45 0 0 -0.44 0 -23 0 -0.11 0.06 -0.1 2.6 -4.92 0 -6.83 0 -0.45 0.45 0zm3.53 0.9l-0.85 0 0 34.06 3.5 0 0 -22.45 -2.6 -4.92 -0.05 -0.1 0 -0.1 0 -6.49zm-34.21 0l-0.85 0 0 6.49 0 0.1 -0.05 0.1 -2.61 4.92 0 22.45 3.51 0 0 -34.06zm-1.3 -0.9l1.75 0 0.04 0 0.4 0 0.04 0 1.75 0 0.45 0 0 0.45 0 6.83 2.6 4.92 0.05 0.1 0 0.11 0 23 0 0.44 -0.45 0 -4.4 0 -0.04 0 -0.4 0 -0.04 0 -4.41 0 -0.44 0 0 -0.44 0 -23 0 -0.11 0.05 -0.1 2.6 -4.92 0 -6.83 0 -0.45 0.45 0zm3.53 0.9l-0.85 0 0 34.06 3.51 0 0 -22.45 -2.61 -4.92 -0.05 -0.1 0 -0.1 0 -6.49zm-33.81 0l-0.84 0 0 6.49 0 0.1 -0.06 0.1 -2.6 4.92 0 22.45 3.5 0 0 -34.06zm-1.29 -0.9l1.74 0 0.04 0 0.41 0 0.04 0 1.75 0 0.45 0 0 0.45 0 6.83 2.6 4.92 0.05 0.1 0 0.11 0 23 0 0.44 -0.45 0 -4.4 0 -0.04 0 -0.41 0 -0.04 0 -4.4 0 -0.45 0 0 -0.44 0 -23 0 -0.11 0.06 -0.1 2.6 -4.92 0 -6.83 0 -0.45 0.45 0zm3.53 0.9l-0.85 0 0 34.06 3.5 0 0 -22.45 -2.6 -4.92 -0.05 -0.1 0 -0.1 0 -6.49zm-33.6 0l-0.86 0 0 6.49 0 0.1 -0.05 0.1 -2.6 4.92 0 22.45 3.51 0 0 -34.06zm-1.3 -0.9l1.74 0 0.04 0 0.41 0 0.04 0 1.75 0 0.45 0 0 0.45 0 6.83 2.6 4.92 0.05 0.1 0 0.11 0 23 0 0.44 -0.45 0 -4.4 0 -0.04 0 -0.41 0 -0.04 0 -4.4 0 -0.45 0 0 -0.44 0 -23 0 -0.11 0.06 -0.1 2.6 -4.92 0 -6.83 0 -0.45 0.45 0zm3.53 0.9l-0.85 0 0 34.06 3.5 0 0 -22.45 -2.6 -4.92 -0.05 -0.1 0 -0.1 0 -6.49zm102.56 18.51l2.84 0 0.45 0 0.45 0 2.4 0 0.45 0 0.45 0 2.39 0 0.45 0 0.45 0 2.84 0 0.45 0 0 0.45 0 4.79 0 0.45 0 0.44 0 4.35 0 0.44 0 0.45 0 4.79 0 0.45 -0.45 0 -2.84 0 -0.45 0 -0.45 0 -2.39 0 -0.45 0 -0.45 0 -2.4 0 -0.45 0 -0.45 0 -2.84 0 -0.45 0 0 -0.45 0 -4.79 0 -0.45 0 -0.44 0 -4.35 0 -0.44 0 -0.45 0 -4.79 0 -0.45 0.45 0zm2.84 0.9l-2.39 0 0 4.34 2.39 0 0 -4.34zm0.9 0l0 4.34 2.4 0 0 -4.34 -2.4 0zm-0.9 5.23l-2.39 0 0 4.35 2.39 0 0 -4.35zm0.9 0l0 4.35 2.4 0 0 -4.35 -2.4 0zm-0.9 5.24l-2.39 0 0 4.34 2.39 0 0 -4.34zm0.9 0l0 4.34 2.4 0 0 -4.34 -2.4 0zm3.3 -10.47l0 4.34 2.39 0 0 -4.34 -2.39 0zm0 5.23l0 4.35 2.39 0 0 -4.35 -2.39 0zm0 5.24l0 4.34 2.39 0 0 -4.34 -2.39 0zm3.29 -10.47l0 4.34 2.4 0 0 -4.34 -2.4 0zm0 5.23l0 4.35 2.4 0 0 -4.35 -2.4 0zm0 5.24l0 4.34 2.4 0 0 -4.34 -2.4 0zm-41.67 -11.37l2.84 0 0.45 0 0.45 0 2.4 0 0.44 0 0.45 0 2.4 0 0.45 0 0.45 0 2.84 0 0.45 0 0 0.45 0 4.79 0 0.45 0 0.44 0 4.35 0 0.44 0 0.45 0 4.79 0 0.45 -0.45 0 -2.84 0 -0.45 0 -0.45 0 -2.4 0 -0.45 0 -0.44 0 -2.4 0 -0.45 0 -0.45 0 -2.84 0 -0.45 0 0 -0.45 0 -4.79 0 -0.45 0 -0.44 0 -4.35 0 -0.44 0 -0.45 0 -4.79 0 -0.45 0.45 0zm2.84 0.9l-2.4 0 0 4.34 2.4 0 0 -4.34zm0.9 0l0 4.34 2.4 0 0 -4.34 -2.4 0zm-0.9 5.23l-2.4 0 0 4.35 2.4 0 0 -4.35zm0.9 0l0 4.35 2.4 0 0 -4.35 -2.4 0zm-0.9 5.24l-2.4 0 0 4.34 2.4 0 0 -4.34zm0.9 0l0 4.34 2.4 0 0 -4.34 -2.4 0zm3.29 -10.47l0 4.34 2.4 0 0 -4.34 -2.4 0zm0 5.23l0 4.35 2.4 0 0 -4.35 -2.4 0zm0 5.24l0 4.34 2.4 0 0 -4.34 -2.4 0zm3.3 -10.47l0 4.34 2.39 0 0 -4.34 -2.39 0zm0 5.23l0 4.35 2.39 0 0 -4.35 -2.39 0zm0 5.24l0 4.34 2.39 0 0 -4.34 -2.39 0zm-42.96 -11.37l2.85 0 0.45 0 0.44 0 2.4 0 0.45 0 0.45 0 2.4 0 0.45 0 0.44 0 2.85 0 0.45 0 0 0.45 0 4.79 0 0.45 0 0.44 0 4.35 0 0.44 0 0.45 0 4.79 0 0.45 -0.45 0 -2.85 0 -0.44 0 -0.45 0 -2.4 0 -0.45 0 -0.45 0 -2.4 0 -0.44 0 -0.45 0 -2.85 0 -0.45 0 0 -0.45 0 -4.79 0 -0.45 0 -0.44 0 -4.35 0 -0.44 0 -0.45 0 -4.79 0 -0.45 0.45 0zm2.85 0.9l-2.4 0 0 4.34 2.4 0 0 -4.34zm0.89 0l0 4.34 2.4 0 0 -4.34 -2.4 0zm-0.89 5.23l-2.4 0 0 4.35 2.4 0 0 -4.35zm0.89 0l0 4.35 2.4 0 0 -4.35 -2.4 0zm-0.89 5.24l-2.4 0 0 4.34 2.4 0 0 -4.34zm0.89 0l0 4.34 2.4 0 0 -4.34 -2.4 0zm3.3 -10.47l0 4.34 2.4 0 0 -4.34 -2.4 0zm0 5.23l0 4.35 2.4 0 0 -4.35 -2.4 0zm0 5.24l0 4.34 2.4 0 0 -4.34 -2.4 0zm3.29 -10.47l0 4.34 2.4 0 0 -4.34 -2.4 0zm0 5.23l0 4.35 2.4 0 0 -4.35 -2.4 0zm0 5.24l0 4.34 2.4 0 0 -4.34 -2.4 0zm-41.16 -11.37l2.84 0 0.45 0 0.45 0 2.4 0 0.45 0 0.44 0 2.4 0 0.45 0 0.45 0 2.84 0 0.45 0 0 0.45 0 4.79 0 0.45 0 0.44 0 4.35 0 0.44 0 0.45 0 4.79 0 0.45 -0.45 0 -2.84 0 -0.45 0 -0.45 0 -2.4 0 -0.44 0 -0.45 0 -2.4 0 -0.45 0 -0.45 0 -2.84 0 -0.45 0 0 -0.45 0 -4.79 0 -0.45 0 -0.44 0 -4.35 0 -0.44 0 -0.45 0 -4.79 0 -0.45 0.45 0zm2.84 0.9l-2.39 0 0 4.34 2.39 0 0 -4.34zm0.9 0l0 4.34 2.4 0 0 -4.34 -2.4 0zm-0.9 5.23l-2.39 0 0 4.35 2.39 0 0 -4.35zm0.9 0l0 4.35 2.4 0 0 -4.35 -2.4 0zm-0.9 5.24l-2.39 0 0 4.34 2.39 0 0 -4.34zm0.9 0l0 4.34 2.4 0 0 -4.34 -2.4 0zm3.29 -10.47l0 4.34 2.4 0 0 -4.34 -2.4 0zm0 5.23l0 4.35 2.4 0 0 -4.35 -2.4 0zm0 5.24l0 4.34 2.4 0 0 -4.34 -2.4 0zm3.3 -10.47l0 4.34 2.4 0 0 -4.34 -2.4 0zm0 5.23l0 4.35 2.4 0 0 -4.35 -2.4 0zm0 5.24l0 4.34 2.4 0 0 -4.34 -2.4 0zm-41.7 -11.37l2.84 0 0.45 0 0.45 0 2.4 0 0.45 0 0.44 0 2.4 0 0.45 0 0.45 0 2.84 0 0.45 0 0 0.45 0 4.79 0 0.45 0 0.44 0 4.35 0 0.44 0 0.45 0 4.79 0 0.45 -0.45 0 -2.84 0 -0.45 0 -0.45 0 -2.4 0 -0.44 0 -0.45 0 -2.4 0 -0.45 0 -0.45 0 -2.84 0 -0.45 0 0 -0.45 0 -4.79 0 -0.45 0 -0.44 0 -4.35 0 -0.44 0 -0.45 0 -4.79 0 -0.45 0.45 0zm2.84 0.9l-2.39 0 0 4.34 2.39 0 0 -4.34zm0.9 0l0 4.34 2.4 0 0 -4.34 -2.4 0zm-0.9 5.23l-2.39 0 0 4.35 2.39 0 0 -4.35zm0.9 0l0 4.35 2.4 0 0 -4.35 -2.4 0zm-0.9 5.24l-2.39 0 0 4.34 2.39 0 0 -4.34zm0.9 0l0 4.34 2.4 0 0 -4.34 -2.4 0zm3.29 -10.47l0 4.34 2.4 0 0 -4.34 -2.4 0zm0 5.23l0 4.35 2.4 0 0 -4.35 -2.4 0zm0 5.24l0 4.34 2.4 0 0 -4.34 -2.4 0zm3.3 -10.47l0 4.34 2.39 0 0 -4.34 -2.39 0zm0 5.23l0 4.35 2.39 0 0 -4.35 -2.39 0zm0 5.24l0 4.34 2.39 0 0 -4.34 -2.39 0zm114.34 4.79l0 -33.94 0.64 -1 0 -15.05c0.38,-5.05 3.07,-9.27 7.47,-12.16 4.4,2.89 7.09,7.11 7.47,12.16l0 15.05 0.64 1 0 33.94 0.77 0 0 -49.99c-0.07,-7.55 -4.08,-11.19 -8.88,-14.18 -4.8,2.99 -8.81,6.63 -8.88,14.18l0 49.99 0.77 0zm-63.98 0l0 -33.94 0.64 -1 0 -15.05c0.39,-5.05 3.08,-9.27 7.47,-12.16 4.4,2.89 7.09,7.11 7.47,12.16l0 15.05 0.64 1 0 33.94 0.77 0 0 -49.99c-0.07,-7.55 -4.07,-11.19 -8.88,-14.18 -4.8,2.99 -8.81,6.63 -8.87,14.18l0 49.99 0.76 0zm-30.83 0l0 -33.94 0.64 -1 0 -15.05c0.38,-5.05 3.07,-9.27 7.47,-12.16 4.4,2.89 7.09,7.11 7.47,12.16l0 15.05 0.64 1 0 33.94 0.77 0 0 -49.99c-0.07,-7.55 -4.08,-11.19 -8.88,-14.18 -4.8,2.99 -8.81,6.63 -8.88,14.18l0 49.99 0.77 0zm-31.2 0l0 -33.94 0.65 -1 0 -15.05c0.38,-5.05 3.07,-9.27 7.47,-12.16 4.39,2.89 7.08,7.11 7.47,12.16l0 15.05 0.64 1 0 33.94 0.76 0 0 -49.99c-0.06,-7.55 -4.07,-11.19 -8.87,-14.18 -4.8,2.99 -8.81,6.63 -8.88,14.18l0 49.99 0.76 0zm-3.59 -34.13l0 37.76 149.01 0 0 -37.76 0.88 0 0 38.21 0 0.45 -0.44 0 -149.9 0 -0.44 0 0 -0.45 0 -38.21 0.89 0z"/>
   <path fill="#B03A28" d="M29.24 85.7l-4.79 0 -0.57 1.29c-0.19,0.42 -0.28,0.77 -0.28,1.05 0,0.38 0.15,0.65 0.46,0.82 0.18,0.11 0.62,0.18 1.33,0.24l0 0.35 -4.51 0 0 -0.35c0.48,-0.08 0.89,-0.27 1.2,-0.59 0.31,-0.32 0.7,-0.99 1.16,-1.99l4.85 -10.51 0.19 0 4.89 10.8c0.46,1.03 0.85,1.67 1.15,1.93 0.23,0.21 0.55,0.32 0.96,0.36l0 0.35 -6.56 0 0 -0.35 0.27 0c0.52,0 0.9,-0.08 1.11,-0.22 0.14,-0.1 0.22,-0.25 0.22,-0.45 0,-0.11 -0.02,-0.23 -0.06,-0.36 -0.02,-0.06 -0.11,-0.3 -0.3,-0.73l-0.72 -1.64zm-0.34 -0.72l-2.02 -4.53 -2.08 4.53 4.1 0zm18.01 -8.7l0 3.57 -0.36 0c-0.22,-0.83 -0.45,-1.42 -0.71,-1.78 -0.26,-0.36 -0.62,-0.64 -1.07,-0.86 -0.26,-0.12 -0.7,-0.17 -1.33,-0.17l-1.01 0 0 10.16c0,0.67 0.04,1.09 0.11,1.26 0.08,0.17 0.23,0.32 0.45,0.44 0.23,0.13 0.53,0.2 0.92,0.2l0.45 0 0 0.35 -7.1 0 0 -0.35 0.45 0c0.39,0 0.71,-0.07 0.95,-0.21 0.17,-0.09 0.31,-0.25 0.41,-0.47 0.07,-0.15 0.11,-0.56 0.11,-1.22l0 -10.16 -0.98 0c-0.91,0 -1.58,0.18 -1.99,0.56 -0.58,0.53 -0.95,1.27 -1.1,2.25l-0.38 0 0 -3.57 12.18 0zm7.74 9.42l-4.79 0 -0.57 1.29c-0.19,0.42 -0.28,0.77 -0.28,1.05 0,0.38 0.15,0.65 0.46,0.82 0.18,0.11 0.62,0.18 1.33,0.24l0 0.35 -4.51 0 0 -0.35c0.48,-0.08 0.89,-0.27 1.2,-0.59 0.31,-0.32 0.7,-0.99 1.16,-1.99l4.85 -10.51 0.19 0 4.89 10.8c0.46,1.03 0.85,1.67 1.15,1.93 0.23,0.21 0.55,0.32 0.96,0.36l0 0.35 -6.56 0 0 -0.35 0.27 0c0.52,0 0.9,-0.08 1.11,-0.22 0.15,-0.1 0.22,-0.25 0.22,-0.45 0,-0.11 -0.02,-0.23 -0.06,-0.36 -0.01,-0.06 -0.11,-0.3 -0.3,-0.73l-0.72 -1.64zm-0.34 -0.72l-2.02 -4.53 -2.08 4.53 4.1 0zm15.14 -3.66l4.77 5.8c0.67,0.82 1.25,1.37 1.74,1.66 0.35,0.21 0.72,0.32 1.12,0.32l0 0.35 -7.06 0 0 -0.35c0.44,-0.05 0.73,-0.12 0.86,-0.21 0.13,-0.1 0.2,-0.22 0.2,-0.36 0,-0.27 -0.31,-0.79 -0.92,-1.53l-3.11 -3.8 -0.5 0.4 0 3.6c0,0.69 0.04,1.11 0.12,1.28 0.08,0.17 0.23,0.31 0.46,0.43 0.23,0.12 0.59,0.19 1.09,0.19l0 0.35 -6.84 0 0 -0.35 0.45 0c0.39,0 0.71,-0.07 0.95,-0.21 0.17,-0.09 0.31,-0.25 0.4,-0.47 0.07,-0.15 0.11,-0.56 0.11,-1.22l0 -8.67c0,-0.67 -0.04,-1.09 -0.11,-1.26 -0.07,-0.17 -0.22,-0.31 -0.45,-0.44 -0.22,-0.13 -0.52,-0.19 -0.9,-0.19l-0.45 0 0 -0.36 6.75 0 0 0.36c-0.46,0 -0.81,0.06 -1.05,0.19 -0.17,0.1 -0.31,0.25 -0.41,0.46 -0.08,0.16 -0.12,0.58 -0.12,1.24l0 4.1 5.03 -3.95c0.7,-0.55 1.05,-0.99 1.05,-1.32 0,-0.25 -0.15,-0.44 -0.43,-0.58 -0.15,-0.08 -0.51,-0.12 -1.09,-0.14l0 -0.36 5.29 0 0 0.36c-0.48,0.03 -0.85,0.11 -1.12,0.24 -0.27,0.14 -0.89,0.59 -1.86,1.35l-3.97 3.09zm12.98 -4.28l0 5.36 0.27 0c0.86,0 1.48,-0.26 1.87,-0.79 0.38,-0.52 0.63,-1.3 0.74,-2.32l0.38 0 0 6.9 -0.38 0c-0.08,-0.75 -0.25,-1.37 -0.51,-1.85 -0.25,-0.48 -0.55,-0.8 -0.9,-0.97 -0.33,-0.16 -0.83,-0.24 -1.47,-0.24l0 3.71c0,0.73 0.03,1.17 0.09,1.33 0.06,0.16 0.18,0.3 0.36,0.4 0.17,0.1 0.45,0.15 0.84,0.15l0.81 0c1.26,0 2.28,-0.28 3.04,-0.85 0.77,-0.57 1.31,-1.44 1.65,-2.6l0.36 0 -0.6 4.18 -11.72 0 0 -0.35 0.45 0c0.39,0 0.71,-0.07 0.95,-0.21 0.17,-0.09 0.3,-0.25 0.4,-0.47 0.07,-0.15 0.11,-0.56 0.11,-1.22l0 -8.67c0,-0.59 -0.02,-0.96 -0.05,-1.09 -0.07,-0.23 -0.19,-0.41 -0.37,-0.53 -0.26,-0.18 -0.6,-0.27 -1.04,-0.27l-0.45 0 0 -0.36 11.34 0 0 3.9 -0.37 0c-0.2,-0.96 -0.47,-1.64 -0.82,-2.05 -0.35,-0.42 -0.84,-0.72 -1.48,-0.92 -0.37,-0.12 -1.08,-0.17 -2.1,-0.17l-1.4 0zm13.18 -0.76l6.69 8.17 0 -5.66c0,-0.79 -0.12,-1.33 -0.35,-1.61 -0.32,-0.37 -0.86,-0.55 -1.61,-0.54l0 -0.36 4.48 0 0 0.36c-0.58,0.07 -0.96,0.16 -1.16,0.28 -0.2,0.11 -0.35,0.29 -0.46,0.55 -0.11,0.26 -0.16,0.69 -0.16,1.32l0 10.97 -0.34 0 -9.17 -10.97 0 8.37c0,0.76 0.17,1.27 0.53,1.53 0.36,0.27 0.77,0.41 1.23,0.41l0.32 0 0 0.35 -4.81 0 0 -0.35c0.74,-0.01 1.26,-0.16 1.56,-0.45 0.29,-0.29 0.44,-0.79 0.44,-1.49l0 -9.3 -0.29 -0.35c-0.29,-0.35 -0.54,-0.58 -0.76,-0.69 -0.22,-0.11 -0.54,-0.17 -0.95,-0.18l0 -0.36 4.81 0zm22.61 0l0 3.57 -0.36 0c-0.22,-0.83 -0.45,-1.42 -0.71,-1.78 -0.26,-0.36 -0.62,-0.64 -1.08,-0.86 -0.25,-0.12 -0.69,-0.17 -1.32,-0.17l-1.01 0 0 10.16c0,0.67 0.03,1.09 0.11,1.26 0.08,0.17 0.23,0.32 0.45,0.44 0.23,0.13 0.53,0.2 0.92,0.2l0.45 0 0 0.35 -7.1 0 0 -0.35 0.45 0c0.39,0 0.71,-0.07 0.95,-0.21 0.17,-0.09 0.31,-0.25 0.4,-0.47 0.08,-0.15 0.12,-0.56 0.12,-1.22l0 -10.16 -0.99 0c-0.91,0 -1.57,0.18 -1.99,0.56 -0.58,0.53 -0.94,1.27 -1.09,2.25l-0.38 0 0 -3.57 12.18 0zm7.07 9.61l-5.84 0 0 -2.01 5.84 0 0 2.01zm6.06 -8.85l0 5.36 0.27 0c0.87,0 1.49,-0.26 1.88,-0.79 0.38,-0.52 0.63,-1.3 0.74,-2.32l0.37 0 0 6.9 -0.37 0c-0.08,-0.75 -0.25,-1.37 -0.51,-1.85 -0.26,-0.48 -0.55,-0.8 -0.9,-0.97 -0.33,-0.16 -0.83,-0.24 -1.48,-0.24l0 3.71c0,0.73 0.04,1.17 0.1,1.33 0.06,0.16 0.18,0.3 0.36,0.4 0.17,0.1 0.45,0.15 0.84,0.15l0.81 0c1.26,0 2.27,-0.28 3.04,-0.85 0.76,-0.57 1.31,-1.44 1.64,-2.6l0.37 0 -0.6 4.18 -11.73 0 0 -0.35 0.46 0c0.39,0 0.71,-0.07 0.94,-0.21 0.18,-0.09 0.31,-0.25 0.4,-0.47 0.08,-0.15 0.12,-0.56 0.12,-1.22l0 -8.67c0,-0.59 -0.02,-0.96 -0.05,-1.09 -0.07,-0.23 -0.2,-0.41 -0.37,-0.53 -0.26,-0.18 -0.6,-0.27 -1.04,-0.27l-0.46 0 0 -0.36 11.35 0 0 3.9 -0.37 0c-0.2,-0.96 -0.47,-1.64 -0.82,-2.05 -0.35,-0.42 -0.85,-0.72 -1.49,-0.92 -0.37,-0.12 -1.07,-0.17 -2.09,-0.17l-1.41 0zm16.73 4.69l3.74 5.39c0.63,0.89 1.07,1.44 1.33,1.63 0.26,0.19 0.58,0.3 0.93,0.35l0 0.35 -6.61 0 0 -0.35c0.53,-0.05 0.87,-0.12 1.02,-0.24 0.16,-0.12 0.23,-0.26 0.23,-0.43 0,-0.11 -0.02,-0.22 -0.07,-0.31 -0.09,-0.19 -0.32,-0.55 -0.7,-1.09l-1.98 -2.84 -2.06 2.46c-0.63,0.74 -0.94,1.24 -0.94,1.51 0,0.19 0.09,0.36 0.24,0.53 0.16,0.16 0.4,0.28 0.71,0.34 0.14,0.04 0.43,0.07 0.86,0.07l0 0.35 -5.21 0 0 -0.35c0.6,-0.09 1.07,-0.25 1.4,-0.47 0.45,-0.3 1.08,-0.92 1.87,-1.87l2.69 -3.18 -3.45 -4.93c-0.56,-0.81 -0.89,-1.26 -0.97,-1.35 -0.18,-0.21 -0.35,-0.37 -0.52,-0.46 -0.18,-0.09 -0.42,-0.16 -0.73,-0.2l0 -0.36 6.73 0 0 0.36 -0.34 0c-0.38,0 -0.65,0.06 -0.8,0.18 -0.16,0.12 -0.24,0.27 -0.24,0.45 0,0.14 0.03,0.27 0.08,0.37l0.68 1.01 1.68 2.49 1.43 -1.7c0.74,-0.88 1.1,-1.49 1.1,-1.84 0,-0.17 -0.05,-0.34 -0.15,-0.49 -0.1,-0.14 -0.25,-0.26 -0.44,-0.34 -0.2,-0.09 -0.5,-0.13 -0.91,-0.13l0 -0.36 4.99 0 0 0.36c-0.39,0.01 -0.71,0.05 -0.94,0.14 -0.25,0.09 -0.5,0.25 -0.78,0.49 -0.17,0.16 -0.6,0.64 -1.3,1.45l-2.57 3.01zm11.67 1.76l0 3.65c0,0.72 0.05,1.16 0.14,1.35 0.09,0.18 0.25,0.33 0.48,0.44 0.23,0.11 0.65,0.17 1.26,0.17l0 0.35 -6.89 0 0 -0.35c0.63,0 1.05,-0.06 1.28,-0.18 0.22,-0.11 0.38,-0.26 0.47,-0.44 0.09,-0.18 0.13,-0.62 0.13,-1.34l0 -8.55c0,-0.71 -0.04,-1.16 -0.13,-1.34 -0.09,-0.19 -0.25,-0.33 -0.48,-0.44 -0.22,-0.12 -0.65,-0.17 -1.27,-0.17l0 -0.36 5.91 0c1.95,0 3.34,0.34 4.19,1.01 0.85,0.67 1.27,1.52 1.27,2.53 0,0.85 -0.27,1.58 -0.82,2.19 -0.54,0.61 -1.3,1.02 -2.26,1.25 -0.64,0.15 -1.74,0.23 -3.28,0.23zm0 -6.45l0 5.69c0.23,0.02 0.39,0.02 0.51,0.02 0.81,0 1.43,-0.23 1.87,-0.71 0.44,-0.46 0.66,-1.19 0.66,-2.18 0,-0.97 -0.22,-1.69 -0.66,-2.14 -0.44,-0.46 -1.09,-0.68 -1.97,-0.68l-0.41 0zm14.89 -0.94c2.16,-0.08 3.92,0.53 5.27,1.83 1.35,1.3 2.02,2.93 2.02,4.89 0,1.67 -0.5,3.14 -1.51,4.41 -1.33,1.68 -3.22,2.53 -5.65,2.53 -2.44,0 -4.32,-0.81 -5.66,-2.42 -1.05,-1.27 -1.58,-2.77 -1.58,-4.51 0,-1.96 0.69,-3.59 2.06,-4.89 1.37,-1.31 3.05,-1.92 5.05,-1.84zm0.12 0.62c-1.24,0 -2.18,0.61 -2.83,1.84 -0.52,1.01 -0.79,2.46 -0.79,4.36 0,2.24 0.41,3.9 1.22,4.98 0.57,0.75 1.36,1.13 2.38,1.13 0.69,0 1.26,-0.17 1.72,-0.49 0.59,-0.41 1.04,-1.08 1.37,-1.99 0.33,-0.91 0.49,-2.09 0.49,-3.56 0,-1.74 -0.16,-3.04 -0.5,-3.91 -0.33,-0.86 -0.76,-1.47 -1.27,-1.83 -0.52,-0.35 -1.11,-0.53 -1.79,-0.53z"/>
  </g>
 </g>
</svg>
